<?xml version="1.0" encoding="UTF-8" standalone="no"?>
<svg
   xmlns:dc="http://purl.org/dc/elements/1.1/"
   xmlns:cc="http://creativecommons.org/ns#"
   xmlns:rdf="http://www.w3.org/1999/02/22-rdf-syntax-ns#"
   xmlns:svg="http://www.w3.org/2000/svg"
   xmlns="http://www.w3.org/2000/svg"
   xmlns:sodipodi="http://sodipodi.sourceforge.net/DTD/sodipodi-0.dtd"
   xmlns:inkscape="http://www.inkscape.org/namespaces/inkscape"
   version="1.1"
   viewBox="-10 0 1000 1000"
   id="svg4"
   sodipodi:docname="estimated.svg"
   width="1000"
   height="1000"
   inkscape:version="1.0.1 (3bc2e813f5, 2020-09-07)">
  <metadata
     id="metadata10">
    <rdf:RDF>
      <cc:Work
         rdf:about="">
        <dc:format>image/svg+xml</dc:format>
        <dc:type
           rdf:resource="http://purl.org/dc/dcmitype/StillImage" />
        <dc:title></dc:title>
      </cc:Work>
    </rdf:RDF>
  </metadata>
  <defs
     id="defs8" />
  <sodipodi:namedview
     pagecolor="#ffffff"
     bordercolor="#666666"
     borderopacity="1"
     objecttolerance="10"
     gridtolerance="10"
     guidetolerance="10"
     inkscape:pageopacity="0"
     inkscape:pageshadow="2"
     inkscape:window-width="1775"
     inkscape:window-height="1195"
     id="namedview6"
     showgrid="false"
     inkscape:snap-smooth-nodes="true"
     inkscape:document-units="px"
     units="px"
     inkscape:zoom="0.40833333"
     inkscape:cx="1010"
     inkscape:cy="900"
     inkscape:window-x="0"
     inkscape:window-y="0"
     inkscape:window-maximized="0"
     inkscape:current-layer="svg4" />
  <path
     fill="currentColor"
     d="m 243.42222,510.13889 c -5.67778,0 -10.54445,4.86667 -10.54445,10.54444 v 178.44445 c 0,16.62778 6.08334,35.28333 21.49445,49.88333 C 316.01666,807.41111 399.15555,843.1 490,843.1 c 104.90059,0 198.34789,-47.62196 259.96111,-119.63889 h 61.64444 C 735.76666,811.46667 616.53333,865 490,865 277.48888,865 84.444445,713.32222 84.444445,500 84.444445,287.48889 277.48888,135 490,135 c 213.32222,0 405.55556,151.67778 405.55556,365 v 10.13889 z m 503.7,-209.26667 c 0,-16.62778 -6.08334,-35.28333 -21.49445,-49.88333 C 663.98333,192.58889 580.84444,156.9 490,156.9 c -91.25,0 -173.98334,35.68889 -235.62778,94.08889 -15.41111,14.6 -21.49445,33.25555 -21.49445,49.88333 v 178.44445 c 0,5.67777 4.86667,10.54444 10.54445,10.54444 h 493.15555 c 5.67778,0 10.54445,-4.86667 10.54445,-10.54444 z"
     id="path2"
     style="stroke-width:0.405556" />
</svg>
